<svg xmlns="http://www.w3.org/2000/svg" xmlns:xlink="http://www.w3.org/1999/xlink" width="16" height="16.372" viewBox="0 0 16 16.372"><defs><style>.a{clip-path:url(#a);}.b{fill:#fbbc05;}.c{fill:#ea4335;}.d{fill:#34a853;}.e{fill:#4285f4;}</style><clipPath id="a"><path d="M17.814,8.7H10.186V11.86h4.391c-.409,2.009-2.121,3.163-4.391,3.163a4.837,4.837,0,0,1,0-9.674A4.732,4.732,0,0,1,13.2,6.428l2.381-2.381a8.181,8.181,0,1,0-5.4,14.326C14.279,18.372,18,15.4,18,10.186A6.791,6.791,0,0,0,17.814,8.7Z" transform="translate(-2 -2)"/></clipPath></defs><g transform="translate(-2 -2)"><g class="a" transform="translate(2 2)"><path class="b" d="M0,20.674V11l6.326,4.837Z" transform="translate(-0.744 -7.651)"/></g><g class="a" transform="translate(2 2)"><path class="c" d="M0,4.093,6.326,8.93l2.6-2.27,8.93-1.451V0H0Z" transform="translate(-0.744 -0.744)"/></g><g class="a" transform="translate(2 2)"><path class="d" d="M0,13.767,11.163,5.209l2.94.372L17.86,0V17.86H0Z" transform="translate(-0.744 -0.744)"/></g><g class="a" transform="translate(2 2)"><path class="e" d="M26.023,24.767l-11.535-8.93L13,14.721,26.023,11Z" transform="translate(-8.907 -7.651)"/></g></g></svg>